<svg width="24" height="15" viewBox="0 0 24 15" fill="none" xmlns="http://www.w3.org/2000/svg">
<path fill-rule="evenodd" clip-rule="evenodd" d="M-6.37772e-06 7.5C-6.3584e-06 7.72099 0.0877775 7.93292 0.244035 8.08917C0.400295 8.24543 0.612228 8.33322 0.833209 8.33322L20.4855 8.33322L15.2412 13.5758C15.1637 13.6533 15.1023 13.7453 15.0603 13.8465C15.0184 13.9477 14.9968 14.0562 14.9968 14.1657C14.9968 14.2753 15.0184 14.3838 15.0603 14.485C15.1023 14.5862 15.1637 14.6782 15.2412 14.7556C15.3187 14.8331 15.4106 14.8946 15.5118 14.9365C15.6131 14.9784 15.7215 15 15.8311 15C15.9407 15 16.0491 14.9784 16.1504 14.9365C16.2516 14.8946 16.3436 14.8331 16.421 14.7556L23.0868 8.08992C23.1643 8.01252 23.2259 7.92057 23.2679 7.81934C23.3099 7.71812 23.3315 7.6096 23.3315 7.5C23.3315 7.3904 23.3099 7.28188 23.2679 7.18066C23.2259 7.07943 23.1643 6.98748 23.0868 6.91008L16.421 0.244352C16.3436 0.166883 16.2516 0.105431 16.1504 0.0635048C16.0491 0.0215794 15.9407 6.46131e-07 15.8311 6.55709e-07C15.7215 6.65287e-07 15.6131 0.0215795 15.5118 0.0635049C15.4106 0.105431 15.3187 0.166883 15.2412 0.244352C15.1637 0.321821 15.1023 0.41379 15.0603 0.515008C15.0184 0.616226 14.9968 0.724711 14.9968 0.834269C14.9968 0.943827 15.0184 1.05231 15.0603 1.15353C15.1023 1.25475 15.1637 1.34672 15.2412 1.42419L20.4855 6.66678L0.833209 6.66679C0.612228 6.66679 0.400295 6.75457 0.244035 6.91083C0.0877774 7.06709 -6.39704e-06 7.27902 -6.37772e-06 7.5Z" fill="#412CB6"/>
</svg>
