<svg width="37" height="32" viewBox="0 0 37 32" fill="none" xmlns="http://www.w3.org/2000/svg">
<path d="M36.3943 5.62872V29.1568C36.3734 29.1988 36.3564 29.2426 36.3436 29.2877C36.032 30.9374 34.7918 31.9959 33.1048 31.9968C23.1676 32.0033 13.2303 31.9998 3.29312 31.9861C2.78553 31.9828 2.28459 31.8704 1.82417 31.6567C0.549297 31.054 0 29.9705 0 28.5835V5.72665C0.0771335 5.80442 0.1324 5.90115 0.160242 6.00709C1.36211 9.60735 2.56338 13.2076 3.76406 16.8079C4.29823 18.3979 5.41463 19.2045 7.09547 19.2054H12.8662C12.8662 19.5517 12.8662 19.8571 12.8662 20.1633C12.8742 20.904 13.2971 21.3349 14.0369 21.3358C16.8086 21.3394 19.5801 21.3394 22.3512 21.3358C23.0928 21.3358 23.5183 20.9058 23.5272 20.1678C23.5272 19.8526 23.5272 19.5383 23.5272 19.2045H29.257C30.9904 19.2045 32.0916 18.4139 32.64 16.7785C33.8443 13.167 35.0494 9.55542 36.2555 5.94388C36.2965 5.83658 36.3428 5.7314 36.3943 5.62872Z" fill="#412CB6"/>
<path d="M1.8606 4.28177H10.7633C10.7633 3.80636 10.7179 3.34431 10.7713 2.89472C10.9716 1.2032 12.2251 0.0405074 13.9256 0.0227019C16.7679 -0.00756732 19.6108 -0.00756732 22.4544 0.0227019C24.2812 0.0413977 25.6086 1.40619 25.6593 3.23392C25.6691 3.56421 25.6593 3.89539 25.6593 4.26129H34.5621C34.5078 4.42688 34.473 4.54529 34.4303 4.6628C33.1632 8.46664 31.8966 12.2702 30.6306 16.0734C30.3716 16.8542 30.0698 17.0732 29.2525 17.0732H23.528C23.528 16.7215 23.5334 16.3948 23.528 16.0672C23.5147 15.3906 23.0874 14.9446 22.4161 14.9437C19.6088 14.9377 16.8014 14.9377 13.9941 14.9437C13.305 14.9437 12.8786 15.3888 12.8679 16.0894C12.8635 16.4064 12.8679 16.7233 12.8679 17.0732H12.5955C10.736 17.0732 8.87623 17.0732 7.01615 17.0732C6.38139 17.0732 6.02618 16.8382 5.83121 16.255C4.5136 12.3183 3.20105 8.38058 1.89354 4.44202C1.87967 4.38923 1.86868 4.33574 1.8606 4.28177ZM23.528 4.26218C23.528 3.95059 23.528 3.67905 23.528 3.40752C23.528 2.55108 23.123 2.14689 22.2683 2.146C20.7418 2.146 19.2153 2.146 17.6887 2.146C16.4575 2.146 15.2271 2.146 13.9968 2.146C13.4413 2.146 13.0023 2.43623 12.9231 2.93923C12.8546 3.37013 12.9089 3.8215 12.9089 4.26129L23.528 4.26218Z" fill="#412CB6"/>
<path d="M21.3755 19.1885H15.0261V17.0964H21.3755V19.1885Z" fill="#412CB6"/>
</svg>
