<svg width="86" height="86" viewBox="0 0 86 86" fill="none" xmlns="http://www.w3.org/2000/svg">
<circle cx="43" cy="43" r="42" stroke="#001F71" stroke-width="2"/>
<path fill-rule="evenodd" clip-rule="evenodd" d="M65.1077 43.5C65.1077 43.9272 64.9379 44.337 64.6358 44.6391C64.3337 44.9412 63.924 45.1109 63.4968 45.1109L25.5024 45.1109L35.6414 55.2466C35.7911 55.3963 35.9099 55.5742 35.991 55.7698C36.072 55.9655 36.1138 56.1753 36.1138 56.3871C36.1138 56.5989 36.072 56.8086 35.991 57.0043C35.9099 57.2 35.7911 57.3778 35.6414 57.5276C35.4916 57.6774 35.3138 57.7962 35.1181 57.8772C34.9224 57.9583 34.7127 58 34.5008 58C34.289 58 34.0793 57.9583 33.8836 57.8772C33.6879 57.7962 33.5101 57.6774 33.3603 57.5276L20.4733 44.6405C20.3232 44.4909 20.2042 44.3131 20.123 44.1174C20.0418 43.9217 20 43.7119 20 43.5C20 43.2881 20.0418 43.0783 20.123 42.8826C20.2042 42.6869 20.3232 42.5091 20.4733 42.3595L33.3603 29.4724C33.5101 29.3226 33.6879 29.2038 33.8836 29.1228C34.0793 29.0417 34.289 29 34.5008 29C34.7127 29 34.9224 29.0417 35.1181 29.1228C35.3138 29.2038 35.4916 29.3226 35.6414 29.4724C35.7911 29.6222 35.9099 29.8 35.991 29.9957C36.072 30.1914 36.1138 30.4011 36.1138 30.6129C36.1138 30.8247 36.072 31.0345 35.991 31.2302C35.9099 31.4258 35.7911 31.6037 35.6414 31.7534L25.5024 41.8891L63.4968 41.8891C63.924 41.8891 64.3337 42.0588 64.6358 42.3609C64.9379 42.663 65.1077 43.0728 65.1077 43.5Z" fill="#001F71"/>
</svg>
