<svg width="86" height="86" viewBox="0 0 86 86" fill="none" xmlns="http://www.w3.org/2000/svg">
<circle cx="43" cy="43" r="42" transform="rotate(-180 43 43)" stroke="#001F71" stroke-width="2"/>
<path fill-rule="evenodd" clip-rule="evenodd" d="M20.8923 42.5C20.8923 42.0728 21.0621 41.663 21.3642 41.3609C21.6663 41.0588 22.076 40.8891 22.5032 40.8891L60.4976 40.8891L50.3586 30.7534C50.2089 30.6037 50.0901 30.4258 50.009 30.2302C49.928 30.0345 49.8862 29.8247 49.8862 29.6129C49.8862 29.4011 49.928 29.1914 50.009 28.9957C50.0901 28.8 50.2089 28.6222 50.3586 28.4724C50.5084 28.3226 50.6862 28.2038 50.8819 28.1228C51.0776 28.0417 51.2873 28 51.4992 28C51.711 28 51.9207 28.0417 52.1164 28.1228C52.3121 28.2038 52.4899 28.3226 52.6397 28.4724L65.5267 41.3595C65.6768 41.5091 65.7958 41.6869 65.877 41.8826C65.9582 42.0783 66 42.2881 66 42.5C66 42.7119 65.9582 42.9217 65.877 43.1174C65.7958 43.3131 65.6768 43.4909 65.5267 43.6405L52.6397 56.5276C52.4899 56.6774 52.3121 56.7962 52.1164 56.8772C51.9207 56.9583 51.711 57 51.4991 57C51.2873 57 51.0776 56.9583 50.8819 56.8772C50.6862 56.7962 50.5084 56.6774 50.3586 56.5276C50.2089 56.3778 50.0901 56.2 50.009 56.0043C49.9279 55.8086 49.8862 55.5989 49.8862 55.3871C49.8862 55.1753 49.9279 54.9655 50.009 54.7698C50.0901 54.5742 50.2089 54.3963 50.3586 54.2466L60.4976 44.1109L22.5032 44.1109C22.076 44.1109 21.6662 43.9412 21.3642 43.6391C21.0621 43.337 20.8923 42.9272 20.8923 42.5Z" fill="#001F71"/>
</svg>
