<svg width="108" height="87" viewBox="0 0 108 87" fill="none" xmlns="http://www.w3.org/2000/svg">
<path d="M9.16247 12.4627C16.7363 4.19231 28.1969 0 43.2204 0H48.6187V15.3283L44.2784 16.2038C36.8828 17.6936 31.7382 20.6244 28.985 24.9255C27.5485 27.2426 26.7338 29.8956 26.6206 32.625H43.2204C44.6521 32.625 46.0252 33.1979 47.0375 34.2176C48.0499 35.2373 48.6187 36.6204 48.6187 38.0625V76.125C48.6187 82.1226 43.7764 87 37.8221 87H5.43225C4.00053 87 2.62745 86.4271 1.61507 85.4074C0.602692 84.3877 0.0339436 83.0046 0.0339436 81.5625V54.375L0.0501386 38.5029C0.00155391 37.8994 -1.02412 23.5987 9.16247 12.4627ZM97.2034 87H64.8136C63.3819 87 62.0088 86.4271 60.9964 85.4074C59.984 84.3877 59.4153 83.0046 59.4153 81.5625V54.375L59.4315 38.5029C59.3829 37.8994 58.3572 23.5987 68.5438 12.4627C76.1176 4.19231 87.5782 0 102.602 0H108V15.3283L103.66 16.2038C96.2641 17.6936 91.1195 20.6244 88.3664 24.9255C86.9298 27.2426 86.1151 29.8956 86.0019 32.625H102.602C104.033 32.625 105.407 33.1979 106.419 34.2176C107.431 35.2373 108 36.6204 108 38.0625V76.125C108 82.1226 103.158 87 97.2034 87Z" fill="#5644BA" fill-opacity="0.2"/>
</svg>
