<svg width="27" height="32" viewBox="0 0 27 32" fill="none" xmlns="http://www.w3.org/2000/svg">
<g clip-path="url(#clip0_98_34)">
<path d="M15.2157 32.003H12.4001C12.3075 31.9879 12.217 31.9668 12.1245 31.9598C11.2315 31.8894 10.3356 31.8522 9.44762 31.7466C7.50281 31.5153 5.61933 31.0567 3.89675 30.0793C1.91573 28.9571 0.612483 27.32 0.169016 25.0624C-0.172886 23.3288 0.0252116 21.6203 0.503874 19.9339C1.40086 16.7864 3.03596 14.0391 5.1296 11.5533C6.60179 9.80554 8.25399 8.26095 10.2963 7.18295C10.3175 7.17189 10.3265 7.13569 10.3396 7.11256C8.82214 5.88573 8.13231 5.07824 7.4294 3.65533C7.05431 2.8951 6.75163 2.10973 6.77275 1.2419C6.79286 0.394187 7.41733 -0.123691 8.25298 0.0261429C8.50837 0.0736834 8.75858 0.145751 9.00013 0.241341C9.60349 0.474639 10.1918 0.733077 10.7911 0.970397C11.5188 1.27066 12.3278 1.31114 13.0818 1.08503C14.0492 0.801452 15.0236 0.533967 16.0061 0.308714C16.5744 0.186061 17.1519 0.111381 17.7327 0.0854694C18.1591 0.0623408 18.2908 0.220223 18.3029 0.648606C18.3114 0.887731 18.2874 1.12691 18.2315 1.35956C17.7431 3.40642 16.6882 5.27437 15.1876 6.74954C15.1175 6.80307 15.039 6.84454 14.9553 6.87223C15.812 7.38809 16.6135 7.79837 17.3345 8.31927C20.7535 10.788 23.2866 13.9928 25.0776 17.79C25.9504 19.6392 26.5317 21.575 26.5387 23.6465C26.5474 26.6144 25.2522 28.8143 22.6531 30.2462C20.9556 31.1784 19.1023 31.5907 17.1997 31.813C16.5421 31.8894 15.8784 31.9387 15.2157 32.003ZM13.9497 25.0202C14.9965 24.8703 15.5586 24.6632 16.1187 24.2589C17.6503 23.1467 17.7739 20.5986 15.799 19.5839C15.519 19.4468 15.2316 19.3252 14.9382 19.2199C14.6154 19.0972 14.1518 19.0821 13.9949 18.8529C13.838 18.6236 13.9517 18.1701 13.9507 17.8161C13.9507 17.2127 13.9507 16.6094 13.9507 16.006C14.6787 16.0171 15.3394 16.4787 15.5596 17.1263C15.6602 17.4209 15.81 17.6532 16.1167 17.7467C16.2511 17.7924 16.3957 17.7989 16.5336 17.7652C16.6715 17.7315 16.7969 17.6592 16.8951 17.5567C17.1565 17.3012 17.1796 16.9915 17.071 16.6617C16.7332 15.637 16.0212 14.9833 15.0236 14.6274C14.6848 14.5057 14.3278 14.4343 13.9537 14.3327C13.9537 14.0914 13.9537 13.843 13.9537 13.5946C13.9426 13.0727 13.6309 12.7268 13.1744 12.7208C12.7178 12.7147 12.395 13.0496 12.3779 13.5725C12.3699 13.8309 12.3779 14.0904 12.3779 14.3589L12.0209 14.4373C11.4077 14.5671 10.8338 14.8396 10.3456 15.2327C9.06349 16.2745 8.90561 18.6015 10.7016 19.5568C11.1561 19.7971 11.6579 19.953 12.1456 20.127C12.3055 20.1843 12.383 20.2416 12.3809 20.4286C12.3719 21.3236 12.3809 22.2196 12.3749 23.1146C12.3689 23.1775 12.3571 23.2398 12.3397 23.3006C11.6036 23.0814 11.1018 22.653 10.8544 21.932C10.7892 21.7376 10.6777 21.562 10.5296 21.4201C10.2803 21.1939 9.91221 21.21 9.62461 21.403C9.49003 21.4942 9.38776 21.6256 9.33248 21.7784C9.2772 21.9312 9.27175 22.0977 9.3169 22.2538C9.64573 23.4716 10.4341 24.265 11.5976 24.7155C11.847 24.816 12.2009 24.816 12.3287 24.996C12.4564 25.176 12.3638 25.5169 12.3729 25.7874C12.39 26.2953 12.6957 26.6271 13.1442 26.6331C13.6078 26.6402 13.9296 26.3033 13.9487 25.7844C13.9557 25.53 13.9497 25.2816 13.9497 25.0172V25.0202Z" fill="#412CB6"/>
<path d="M13.9678 20.5161C14.4203 20.7172 14.8587 20.854 15.2388 21.0883C15.8291 21.4513 15.8593 22.3362 15.3394 22.8541C14.9673 23.2222 14.4957 23.3569 13.9708 23.4152L13.9678 20.5161Z" fill="#412CB6"/>
<path d="M12.3538 16.0141V18.6136C11.9516 18.4064 11.5735 18.2596 11.2476 18.0353C10.8454 17.7598 10.8303 17.0941 11.1551 16.6557C11.3024 16.4745 11.4842 16.3245 11.69 16.2144C11.8958 16.1042 12.1214 16.0361 12.3538 16.0141Z" fill="#412CB6"/>
</g>
<defs>
<clipPath id="clip0_98_34">
<rect width="26.5416" height="32" fill="white"/>
</clipPath>
</defs>
</svg>
