<svg width="251" height="75" viewBox="0 0 251 75" fill="none" xmlns="http://www.w3.org/2000/svg">
<path d="M89.0938 30.1875V8H96.6562C99.7812 8 102.448 9.08333 104.656 11.25C106.865 13.4167 107.969 16.0313 107.969 19.0938C107.969 22.1563 106.865 24.7708 104.656 26.9375C102.448 29.1042 99.7812 30.1875 96.6562 30.1875H89.0938ZM94.0625 25.625H96.6562C98.4896 25.625 99.9896 25 101.156 23.75C102.344 22.4792 102.938 20.9271 102.938 19.0938C102.938 17.2604 102.344 15.7188 101.156 14.4688C99.9896 13.1979 98.4896 12.5625 96.6562 12.5625H94.0625V25.625Z" fill="#001F71"/>
<path d="M111.433 30.1875V8H120.183C122.224 8 123.881 8.64583 125.151 9.9375C126.422 11.2292 127.058 12.8125 127.058 14.6875C127.058 17.4792 125.61 19.3854 122.714 20.4062L130.558 30.1875H124.589L117.183 21.0312H116.401V30.1875H111.433ZM116.401 16.8125H119.589C120.339 16.8125 120.943 16.6146 121.401 16.2188C121.881 15.8229 122.12 15.3125 122.12 14.6875C122.12 14.0208 121.881 13.5 121.401 13.125C120.943 12.75 120.339 12.5625 119.589 12.5625H116.401V16.8125Z" fill="#001F71"/>
<path d="M132.124 30.1875V8H137.092V30.1875H132.124Z" fill="#001F71"/>
<path d="M141.767 8H146.298L153.205 17.5625L160.173 8H164.705V30.1875H159.705V16.5313L153.236 25.4688L146.736 16.5V30.1875H141.767V8Z" fill="#001F71"/>
<path d="M97.75 65.8125L88.6562 43.625H94.0625L99.9688 58.4062L105.844 43.625H111.312L102.219 65.8125H97.75Z" fill="#001F71"/>
<path d="M113.674 65.8125V43.625H127.736V48.375H118.643V52.3438H125.861V57.0938H118.643V61.0625H127.736V65.8125H113.674Z" fill="#001F71"/>
<path d="M151.589 65.8125H147.308L136.495 52.0938V65.8125H131.527V43.625H135.808L146.589 57.3438V43.625H151.589V65.8125Z" fill="#001F71"/>
<path d="M160.276 65.8125V48.375H154.62V43.625H170.995V48.375H165.276V65.8125H160.276Z" fill="#001F71"/>
<path d="M189.475 63.6875C187.788 65.3542 185.6 66.1875 182.913 66.1875C180.225 66.1875 178.027 65.3542 176.319 63.6875C174.631 62 173.788 59.7813 173.788 57.0313V43.625H178.756V57.0938C178.756 58.4063 179.131 59.4479 179.881 60.2188C180.652 60.9896 181.663 61.375 182.913 61.375C184.163 61.375 185.163 60.9896 185.913 60.2188C186.683 59.4479 187.069 58.4063 187.069 57.0938V43.625H192.038V57.0313C192.038 59.7813 191.183 62 189.475 63.6875Z" fill="#001F71"/>
<path d="M196.468 65.8125V43.625H205.218C207.26 43.625 208.916 44.2708 210.187 45.5625C211.458 46.8542 212.093 48.4375 212.093 50.3125C212.093 53.1042 210.645 55.0104 207.749 56.0312L215.593 65.8125H209.624L202.218 56.6562H201.437V65.8125H196.468ZM201.437 52.4375H204.624C205.374 52.4375 205.978 52.2396 206.437 51.8438C206.916 51.4479 207.156 50.9375 207.156 50.3125C207.156 49.6458 206.916 49.125 206.437 48.75C205.978 48.375 205.374 48.1875 204.624 48.1875H201.437V52.4375Z" fill="#001F71"/>
<path d="M217.159 65.8125V43.625H231.221V48.375H222.128V52.3438H229.346V57.0938H222.128V61.0625H231.221V65.8125H217.159Z" fill="#001F71"/>
<path d="M242.418 66.1875C239.835 66.1875 237.751 65.4375 236.168 63.9375C234.585 62.4375 233.751 60.6875 233.668 58.6875H238.637C238.803 59.6042 239.22 60.3229 239.887 60.8438C240.574 61.3438 241.418 61.5938 242.418 61.5938C243.272 61.5938 243.96 61.4167 244.48 61.0625C245.022 60.7083 245.293 60.2292 245.293 59.625C245.293 58.5625 244.324 57.7604 242.387 57.2188L240.23 56.6562C238.376 56.1563 236.918 55.3438 235.855 54.2188C234.793 53.0938 234.251 51.6875 234.23 50C234.23 47.9375 234.918 46.3021 236.293 45.0938C237.689 43.8646 239.543 43.25 241.855 43.25C244.189 43.25 246.085 43.9583 247.543 45.375C249.001 46.7708 249.772 48.375 249.855 50.1875H244.918C244.689 49.375 244.293 48.7813 243.73 48.4063C243.168 48.0313 242.543 47.8438 241.855 47.8438C241.085 47.8438 240.46 48 239.98 48.3125C239.501 48.625 239.251 49.0729 239.23 49.6563C239.21 50.2396 239.418 50.7188 239.855 51.0938C240.314 51.4688 241.001 51.7813 241.918 52.0313L244.449 52.6875C246.303 53.1875 247.741 54.0104 248.762 55.1563C249.803 56.3021 250.324 57.7396 250.324 59.4688C250.324 61.3854 249.595 62.9896 248.137 64.2812C246.678 65.5521 244.772 66.1875 242.418 66.1875Z" fill="#001F71"/>
<circle cx="37.5" cy="37.5" r="37.5" fill="#001F71"/>
<path d="M52.3882 24.103C49.0324 20.5349 44.8156 18.7506 39.7379 18.75H26.4974C26.1522 18.75 25.8211 18.8858 25.577 19.1274C25.3329 19.3691 25.1958 19.6968 25.1958 20.0386V25.1773C25.1958 25.8254 25.4558 26.447 25.9187 26.9053C26.3816 27.3636 27.0095 27.621 27.6641 27.621H27.6809C28.3355 27.621 28.9633 27.3636 29.4262 26.9053C29.8892 26.447 30.1492 25.8254 30.1492 25.1773V23.3908H39.7374C43.5369 23.3908 46.6441 24.7092 49.059 27.3461C51.4739 29.983 52.6813 33.2703 52.6813 37.2081C52.6813 41.1459 51.4739 44.4333 49.059 47.0701C46.6441 49.707 43.5369 51.0254 39.7374 51.0254H30.1492V38.4596L34.7483 43.0123C35.1576 43.4186 35.6983 43.6693 36.2756 43.7205C36.6733 43.7967 37.0837 43.775 37.471 43.6575C37.8582 43.5399 38.2104 43.3301 38.4967 43.0464L42.4963 39.0867V43.2043C42.4963 43.8547 42.7572 44.4784 43.2217 44.9383C43.6861 45.3982 44.3161 45.6566 44.973 45.6567C45.63 45.6567 46.2601 45.3983 46.7246 44.9384C47.1892 44.4785 47.4502 43.8547 47.4502 43.2043V33.3663C47.4506 33.0208 47.377 32.679 47.2342 32.3637C47.0915 32.0484 46.8828 31.7666 46.6219 31.537C46.392 31.3093 46.1189 31.1286 45.8184 31.0053C45.5179 30.882 45.1958 30.8186 44.8705 30.8186C44.5452 30.8186 44.2231 30.882 43.9226 31.0053C43.6221 31.1286 43.349 31.3093 43.1191 31.537L36.6397 37.9517L29.5559 30.9388L29.5405 30.9244C29.3085 30.6594 29.0215 30.4469 28.6992 30.3014C28.3769 30.156 28.0267 30.0809 27.6725 30.0813C27.0155 30.0813 26.3854 30.3397 25.9209 30.7996C25.4563 31.2595 25.1953 31.8833 25.1953 32.5337V53.9997C25.1953 54.2183 25.2388 54.4348 25.3233 54.6367C25.4078 54.8387 25.5317 55.0222 25.6879 55.1767C25.844 55.3313 26.0294 55.4539 26.2334 55.5375C26.4374 55.6211 26.6561 55.6641 26.8769 55.6641H39.7374C44.8152 55.6641 49.032 53.8799 52.3878 50.3115C55.7435 46.7432 57.4216 42.3749 57.4219 37.2068C57.4222 32.0378 55.7443 27.6699 52.3882 24.103Z" fill="#FC6DAB"/>
</svg>
