<svg width="163" height="59" viewBox="0 0 163 59" fill="none" xmlns="http://www.w3.org/2000/svg">
<path d="M1.09375 22.1875V0H8.65625C11.7812 0 14.4479 1.08333 16.6563 3.25C18.8646 5.41667 19.9688 8.03125 19.9688 11.0938C19.9688 14.1563 18.8646 16.7708 16.6563 18.9375C14.4479 21.1042 11.7812 22.1875 8.65625 22.1875H1.09375ZM6.0625 17.625H8.65625C10.4896 17.625 11.9896 17 13.1563 15.75C14.3438 14.4792 14.9375 12.9271 14.9375 11.0938C14.9375 9.26042 14.3438 7.71875 13.1563 6.46875C11.9896 5.19792 10.4896 4.5625 8.65625 4.5625H6.0625V17.625Z" fill="#001F71"/>
<path d="M23.4326 22.1875V0H32.1826C34.2243 0 35.8805 0.645834 37.1514 1.9375C38.4222 3.22917 39.0576 4.8125 39.0576 6.6875C39.0576 9.47917 37.6097 11.3854 34.7139 12.4062L42.5576 22.1875H36.5889L29.1826 13.0312H28.4014V22.1875H23.4326ZM28.4014 8.8125H31.5889C32.3389 8.8125 32.943 8.61458 33.4014 8.21875C33.8805 7.82292 34.1201 7.3125 34.1201 6.6875C34.1201 6.02083 33.8805 5.5 33.4014 5.125C32.943 4.75 32.3389 4.5625 31.5889 4.5625H28.4014V8.8125Z" fill="#001F71"/>
<path d="M44.1235 22.1875V0H49.0923V22.1875H44.1235Z" fill="#001F71"/>
<path d="M53.7671 0H58.2983L65.2046 9.5625L72.1733 0H76.7046V22.1875H71.7046V8.53125L65.2358 17.4688L58.7358 8.5V22.1875H53.7671V0Z" fill="#001F71"/>
<path d="M9.75 57.8125L0.65625 35.625H6.0625L11.9688 50.4062L17.8438 35.625H23.3125L14.2188 57.8125H9.75Z" fill="#001F71"/>
<path d="M25.6738 57.8125V35.625H39.7363V40.375H30.6426V44.3438H37.8613V49.0938H30.6426V53.0625H39.7363V57.8125H25.6738Z" fill="#001F71"/>
<path d="M63.5891 57.8125H59.3079L48.4954 44.0938V57.8125H43.5266V35.625H47.8079L58.5891 49.3438V35.625H63.5891V57.8125Z" fill="#001F71"/>
<path d="M72.2764 57.8125V40.375H66.6201V35.625H82.9951V40.375H77.2764V57.8125H72.2764Z" fill="#001F71"/>
<path d="M101.475 55.6875C99.7876 57.3542 97.6001 58.1875 94.9126 58.1875C92.2251 58.1875 90.0272 57.3542 88.3188 55.6875C86.6313 54 85.7876 51.7813 85.7876 49.0313V35.625H90.7563V49.0938C90.7563 50.4063 91.1313 51.4479 91.8813 52.2188C92.6522 52.9896 93.6626 53.375 94.9126 53.375C96.1626 53.375 97.1626 52.9896 97.9126 52.2188C98.6834 51.4479 99.0688 50.4063 99.0688 49.0938V35.625H104.038V49.0313C104.038 51.7813 103.183 54 101.475 55.6875Z" fill="#001F71"/>
<path d="M108.468 57.8125V35.625H117.218C119.26 35.625 120.916 36.2708 122.187 37.5625C123.458 38.8542 124.093 40.4375 124.093 42.3125C124.093 45.1042 122.645 47.0104 119.749 48.0312L127.593 57.8125H121.624L114.218 48.6562H113.437V57.8125H108.468ZM113.437 44.4375H116.624C117.374 44.4375 117.978 44.2396 118.437 43.8438C118.916 43.4479 119.156 42.9375 119.156 42.3125C119.156 41.6458 118.916 41.125 118.437 40.75C117.978 40.375 117.374 40.1875 116.624 40.1875H113.437V44.4375Z" fill="#001F71"/>
<path d="M129.159 57.8125V35.625H143.221V40.375H134.128V44.3438H141.346V49.0938H134.128V53.0625H143.221V57.8125H129.159Z" fill="#001F71"/>
<path d="M154.418 58.1875C151.835 58.1875 149.751 57.4375 148.168 55.9375C146.585 54.4375 145.751 52.6875 145.668 50.6875H150.637C150.803 51.6042 151.22 52.3229 151.887 52.8438C152.574 53.3438 153.418 53.5938 154.418 53.5938C155.272 53.5938 155.96 53.4167 156.48 53.0625C157.022 52.7083 157.293 52.2292 157.293 51.625C157.293 50.5625 156.324 49.7604 154.387 49.2188L152.23 48.6562C150.376 48.1563 148.918 47.3438 147.855 46.2188C146.793 45.0938 146.251 43.6875 146.23 42C146.23 39.9375 146.918 38.3021 148.293 37.0938C149.689 35.8646 151.543 35.25 153.855 35.25C156.189 35.25 158.085 35.9583 159.543 37.375C161.001 38.7708 161.772 40.375 161.855 42.1875H156.918C156.689 41.375 156.293 40.7813 155.73 40.4063C155.168 40.0313 154.543 39.8438 153.855 39.8438C153.085 39.8438 152.46 40 151.98 40.3125C151.501 40.625 151.251 41.0729 151.23 41.6563C151.21 42.2396 151.418 42.7188 151.855 43.0938C152.314 43.4688 153.001 43.7813 153.918 44.0313L156.449 44.6875C158.303 45.1875 159.741 46.0104 160.762 47.1563C161.803 48.3021 162.324 49.7396 162.324 51.4688C162.324 53.3854 161.595 54.9896 160.137 56.2812C158.678 57.5521 156.772 58.1875 154.418 58.1875Z" fill="#001F71"/>
</svg>
