<svg width="50" height="47" viewBox="0 0 50 47" fill="none" xmlns="http://www.w3.org/2000/svg">
<path d="M9.28125 1.21875C9.57465 0.875733 9.93887 0.600346 10.3489 0.411535C10.7588 0.222724 11.2049 0.12497 11.6562 0.125H38.3438C38.7951 0.12497 39.2412 0.222724 39.6511 0.411535C40.0611 0.600346 40.4254 0.875733 40.7188 1.21875L48.8719 10.7312C49.5998 11.5807 50 12.6625 50 13.7812V14.5781C50.0002 16.1249 49.5171 17.6331 48.6182 18.8919C47.7193 20.1508 46.4496 21.0973 44.9865 21.5992C43.5234 22.1011 41.94 22.1334 40.4577 21.6915C38.9754 21.2495 37.6682 20.3555 36.7188 19.1344C36.0254 20.0274 35.137 20.7499 34.1214 21.2466C33.1057 21.7433 31.9899 22.001 30.8594 22C29.7288 22.0013 28.6129 21.7437 27.5972 21.2469C26.5816 20.7502 25.6931 20.0276 25 19.1344C24.3069 20.0276 23.4184 20.7502 22.4028 21.2469C21.3871 21.7437 20.2712 22.0013 19.1406 22C18.01 22.0013 16.8941 21.7437 15.8785 21.2469C14.8628 20.7502 13.9744 20.0276 13.2812 19.1344C12.3318 20.3555 11.0246 21.2495 9.5423 21.6915C8.05997 22.1334 6.47661 22.1011 5.01351 21.5992C3.55041 21.0973 2.2807 20.1508 1.38182 18.8919C0.482943 17.6331 -0.000170621 16.1249 4.52017e-08 14.5781V13.7812C3.93986e-05 12.6625 0.400177 11.5807 1.12812 10.7312L9.28438 1.21562L9.28125 1.21875ZM14.8438 14.5781C14.8438 15.7177 15.2965 16.8107 16.1023 17.6165C16.9081 18.4223 18.001 18.875 19.1406 18.875C20.2802 18.875 21.3732 18.4223 22.179 17.6165C22.9848 16.8107 23.4375 15.7177 23.4375 14.5781C23.4375 14.1637 23.6021 13.7663 23.8951 13.4733C24.1882 13.1802 24.5856 13.0156 25 13.0156C25.4144 13.0156 25.8118 13.1802 26.1049 13.4733C26.3979 13.7663 26.5625 14.1637 26.5625 14.5781C26.5625 15.7177 27.0152 16.8107 27.821 17.6165C28.6268 18.4223 29.7198 18.875 30.8594 18.875C31.999 18.875 33.0919 18.4223 33.8977 17.6165C34.7035 16.8107 35.1562 15.7177 35.1562 14.5781C35.1562 14.1637 35.3209 13.7663 35.6139 13.4733C35.9069 13.1802 36.3043 13.0156 36.7188 13.0156C37.1332 13.0156 37.5306 13.1802 37.8236 13.4733C38.1166 13.7663 38.2812 14.1637 38.2812 14.5781C38.2812 15.7177 38.734 16.8107 39.5398 17.6165C40.3456 18.4223 41.4385 18.875 42.5781 18.875C43.7177 18.875 44.8107 18.4223 45.6165 17.6165C46.4223 16.8107 46.875 15.7177 46.875 14.5781V13.7812C46.875 13.4088 46.742 13.0487 46.5 12.7656L38.3438 3.25H11.6562L3.5 12.7656C3.25796 13.0487 3.12497 13.4088 3.125 13.7812V14.5781C3.125 15.7177 3.57771 16.8107 4.38353 17.6165C5.18935 18.4223 6.28227 18.875 7.42188 18.875C8.56148 18.875 9.6544 18.4223 10.4602 17.6165C11.266 16.8107 11.7188 15.7177 11.7188 14.5781C11.7188 14.1637 11.8834 13.7663 12.1764 13.4733C12.4694 13.1802 12.8668 13.0156 13.2812 13.0156C13.6957 13.0156 14.0931 13.1802 14.3861 13.4733C14.6791 13.7663 14.8438 14.1637 14.8438 14.5781ZM4.6875 23.5625C5.1019 23.5625 5.49933 23.7271 5.79235 24.0201C6.08538 24.3132 6.25 24.7106 6.25 25.125V43.875H9.375V28.25C9.375 27.4212 9.70424 26.6263 10.2903 26.0403C10.8763 25.4542 11.6712 25.125 12.5 25.125H21.875C22.7038 25.125 23.4987 25.4542 24.0847 26.0403C24.6708 26.6263 25 27.4212 25 28.25V43.875H43.75V25.125C43.75 24.7106 43.9146 24.3132 44.2076 24.0201C44.5007 23.7271 44.8981 23.5625 45.3125 23.5625C45.7269 23.5625 46.1243 23.7271 46.4174 24.0201C46.7104 24.3132 46.875 24.7106 46.875 25.125V43.875H48.4375C48.8519 43.875 49.2493 44.0396 49.5424 44.3326C49.8354 44.6257 50 45.0231 50 45.4375C50 45.8519 49.8354 46.2493 49.5424 46.5424C49.2493 46.8354 48.8519 47 48.4375 47H1.5625C1.1481 47 0.750671 46.8354 0.457646 46.5424C0.16462 46.2493 4.52017e-08 45.8519 4.52017e-08 45.4375C4.52017e-08 45.0231 0.16462 44.6257 0.457646 44.3326C0.750671 44.0396 1.1481 43.875 1.5625 43.875H3.125V25.125C3.125 24.7106 3.28962 24.3132 3.58265 24.0201C3.87567 23.7271 4.2731 23.5625 4.6875 23.5625ZM12.5 43.875H21.875V28.25H12.5V43.875ZM28.125 28.25C28.125 27.4212 28.4542 26.6263 29.0403 26.0403C29.6263 25.4542 30.4212 25.125 31.25 25.125H37.5C38.3288 25.125 39.1237 25.4542 39.7097 26.0403C40.2958 26.6263 40.625 27.4212 40.625 28.25V37.625C40.625 38.4538 40.2958 39.2487 39.7097 39.8347C39.1237 40.4208 38.3288 40.75 37.5 40.75H31.25C30.4212 40.75 29.6263 40.4208 29.0403 39.8347C28.4542 39.2487 28.125 38.4538 28.125 37.625V28.25ZM37.5 28.25H31.25V37.625H37.5V28.25Z" fill="#FBB2F4"/>
</svg>
