<svg width="26" height="32" viewBox="0 0 26 32" fill="none" xmlns="http://www.w3.org/2000/svg">
<path d="M13 0C9.55344 0.00393197 6.2492 1.32968 3.81211 3.68643C1.37502 6.04318 0.00407984 9.23849 1.38307e-05 12.5714C-0.00411413 15.2951 0.915899 17.9449 2.61892 20.1143C2.61892 20.1143 2.97347 20.5657 3.03137 20.6309L13 32L22.9734 20.6251C23.0254 20.5646 23.3811 20.1143 23.3811 20.1143L23.3823 20.1109C25.0844 17.9424 26.004 15.2939 26 12.5714C25.9959 9.23849 24.625 6.04318 22.1879 3.68643C19.7508 1.32968 16.4466 0.00393197 13 0ZM13 17.1429C12.065 17.1429 11.1511 16.8747 10.3737 16.3724C9.59628 15.8701 8.99037 15.1562 8.63257 14.3208C8.27478 13.4855 8.18116 12.5664 8.36357 11.6796C8.54597 10.7928 8.9962 9.97827 9.65732 9.33894C10.3184 8.69961 11.1608 8.26423 12.0778 8.08784C12.9948 7.91145 13.9453 8.00198 14.809 8.34798C15.6728 8.69398 16.4111 9.27991 16.9306 10.0317C17.45 10.7834 17.7273 11.6673 17.7273 12.5714C17.7257 13.7834 17.2272 14.9453 16.341 15.8022C15.4548 16.6592 14.2533 17.1413 13 17.1429Z" fill="#412CB6"/>
</svg>
