<svg width="75" height="75" viewBox="0 0 75 75" fill="none" xmlns="http://www.w3.org/2000/svg">
<circle cx="37.5" cy="37.5" r="37.5" fill="#001F71"/>
<path d="M52.3882 24.103C49.0324 20.5349 44.8156 18.7506 39.7379 18.75H26.4974C26.1522 18.75 25.8211 18.8858 25.577 19.1274C25.3329 19.3691 25.1958 19.6968 25.1958 20.0386V25.1773C25.1958 25.8254 25.4558 26.447 25.9187 26.9053C26.3816 27.3636 27.0095 27.621 27.6641 27.621H27.6809C28.3355 27.621 28.9633 27.3636 29.4262 26.9053C29.8892 26.447 30.1492 25.8254 30.1492 25.1773V23.3908H39.7374C43.5369 23.3908 46.6441 24.7092 49.059 27.3461C51.4739 29.983 52.6813 33.2703 52.6813 37.2081C52.6813 41.1459 51.4739 44.4333 49.059 47.0701C46.6441 49.707 43.5369 51.0254 39.7374 51.0254H30.1492V38.4596L34.7483 43.0123C35.1576 43.4186 35.6983 43.6693 36.2756 43.7205C36.6733 43.7967 37.0837 43.775 37.471 43.6575C37.8582 43.5399 38.2104 43.3301 38.4967 43.0463L42.4963 39.0867V43.2043C42.4963 43.8547 42.7572 44.4784 43.2217 44.9383C43.6861 45.3982 44.3161 45.6566 44.973 45.6567C45.63 45.6567 46.2601 45.3984 46.7246 44.9384C47.1892 44.4785 47.4502 43.8547 47.4502 43.2043V33.3663C47.4506 33.0208 47.377 32.679 47.2342 32.3637C47.0915 32.0484 46.8828 31.7666 46.6219 31.537C46.392 31.3093 46.1189 31.1286 45.8184 31.0053C45.5179 30.882 45.1958 30.8186 44.8705 30.8186C44.5452 30.8186 44.2231 30.882 43.9226 31.0053C43.6221 31.1286 43.349 31.3093 43.1191 31.537L36.6397 37.9517L29.5559 30.9388L29.5405 30.9244C29.3085 30.6594 29.0215 30.4469 28.6992 30.3014C28.3769 30.156 28.0267 30.0809 27.6725 30.0813C27.0155 30.0813 26.3854 30.3397 25.9209 30.7996C25.4563 31.2595 25.1953 31.8833 25.1953 32.5337V53.9997C25.1953 54.2183 25.2388 54.4348 25.3233 54.6367C25.4078 54.8387 25.5317 55.0222 25.6879 55.1767C25.844 55.3313 26.0294 55.4539 26.2334 55.5375C26.4374 55.6211 26.6561 55.6641 26.8769 55.6641H39.7374C44.8152 55.6641 49.032 53.8799 52.3878 50.3115C55.7435 46.7432 57.4216 42.3749 57.4219 37.2068C57.4222 32.0378 55.7443 27.6699 52.3882 24.103Z" fill="#FC6DAB"/>
</svg>
